<svg xmlns="http://www.w3.org/2000/svg" viewBox="0 0 80 80">
  <defs>
    <style>
      .cls-1 {
        fill: #d6d6ea;
      }

      .cls-2, .cls-3 {
        fill: #adadd6;
      }

      .cls-3 {
        font-size: 36px;
        font-family: FontAwesome5FreeSolid, "Font Awesome 5 Free";
      }
    </style>
  </defs>
  <g id="Group_7" data-name="Group 7" transform="translate(-323 -2392)">
    <rect id="Rectangle_31" data-name="Rectangle 31" class="cls-1" width="80" height="80" rx="3" transform="translate(323 2392)"/>
    <path id="Rectangle_32" data-name="Rectangle 32" class="cls-2" d="M3,0H76.612a3,3,0,0,1,3,3V15.121a0,0,0,0,1,0,0H0a0,0,0,0,1,0,0V3A3,3,0,0,1,3,0Z" transform="translate(323 2392)"/>
    <circle id="Ellipse_13" data-name="Ellipse 13" class="cls-1" cx="2.908" cy="2.908" r="2.908" transform="translate(327.653 2396.653)"/>
    <circle id="Ellipse_14" data-name="Ellipse 14" class="cls-1" cx="2.908" cy="2.908" r="2.908" transform="translate(335.795 2396.653)"/>
    <circle id="Ellipse_15" data-name="Ellipse 15" class="cls-1" cx="2.908" cy="2.908" r="2.908" transform="translate(343.937 2396.653)"/>
    <text id="_" data-name="" class="cls-3" transform="translate(363 2451)"><tspan x="-17.965" y="0"></tspan></text>
  </g>
</svg>
