<svg xmlns="http://www.w3.org/2000/svg" viewBox="0 0 80 80">
  <defs>
    <style>
      .cls-1 {
        fill: #d6d6ea;
      }

      .cls-2, .cls-3 {
        fill: #adadd6;
      }

      .cls-3 {
        font-size: 36px;
        font-family: Montserrat-Bold, Montserrat;
        font-weight: 700;
      }
    </style>
  </defs>
  <g id="Group_8" data-name="Group 8" transform="translate(-433 -2392)">
    <rect id="Rectangle_33" data-name="Rectangle 33" class="cls-1" width="80" height="80" rx="3" transform="translate(433 2392)"/>
    <path id="Rectangle_34" data-name="Rectangle 34" class="cls-2" d="M3,0H76.612a3,3,0,0,1,3,3V15.121a0,0,0,0,1,0,0H0a0,0,0,0,1,0,0V3A3,3,0,0,1,3,0Z" transform="translate(433 2392)"/>
    <circle id="Ellipse_16" data-name="Ellipse 16" class="cls-1" cx="2.908" cy="2.908" r="2.908" transform="translate(437.653 2396.653)"/>
    <circle id="Ellipse_17" data-name="Ellipse 17" class="cls-1" cx="2.908" cy="2.908" r="2.908" transform="translate(445.795 2396.653)"/>
    <circle id="Ellipse_18" data-name="Ellipse 18" class="cls-1" cx="2.908" cy="2.908" r="2.908" transform="translate(453.937 2396.653)"/>
    <text id="_" data-name="&lt;/&gt;" class="cls-3" transform="translate(444 2451)"><tspan x="0" y="0">&lt;/&gt;</tspan></text>
  </g>
</svg>
